<svg width="2556" height="2525" viewBox="0 0 2556 2525" fill="none" xmlns="http://www.w3.org/2000/svg">
<path opacity="0.9" d="M1004.52 932.799L1009.82 1251.36M1009.82 1251.36L1013.99 1501.78C1013.99 1522.8 1008.13 1529.59 1027.41 1540.09M1009.82 1251.36C1009.82 1230.33 1010.46 1229.17 1029.74 1218.68L1264.69 1090.49M1027.41 1540.09L736.408 1382.35M1027.41 1540.09L1251.04 1670.85C1270.25 1681.31 1277.6 1680.62 1296.8 1670.18M1264.69 1090.49L1556.53 929.898M1264.69 1090.49C1283.9 1080.04 1295.33 1082.95 1314.54 1093.4L1542.77 1218.39M1296.8 1670.18L999.172 1828.95M1296.8 1670.18L1536.69 1552.78C1555.97 1542.29 1566.29 1536.63 1566.29 1515.6M1566.29 1515.6L1571.47 1826.56M1566.29 1515.6L1562.12 1265.86C1561.76 1243.82 1562.05 1228.88 1542.77 1218.39M1542.77 1218.39L1829.9 1382.35M1275.7 30.8535L965.669 224.848C900.229 265.796 901.468 354.202 968.044 393.605L1279.17 577.755M1275.7 30.8535L1726.65 312.233M1275.7 30.8535L828.223 312.233M1279.17 577.755L2101.28 1070.18M1279.17 577.755L1726.65 312.233M1279.17 577.755L453.589 1089.86M1279.17 577.755L828.223 312.233M1726.65 312.233L2101.28 545.995M828.223 312.233L453.589 545.995M2101.28 1070.18C2104.75 1271.27 2101.28 1823.38 2101.28 1952.15C2101.28 2086.57 1907.03 2361.97 1796.02 2466.89L2485.83 1877.29C2508.28 1858.11 2521.02 1831.32 2521.02 1803.28V1335.76M2101.28 1070.18V545.995M2101.28 1070.18L2521.02 1335.76M2521.02 1335.76V861.394C2521.02 827.91 2502.88 796.583 2472.56 777.665L2101.28 545.995M453.589 1089.86C453.589 1289.85 467.465 1823.38 467.465 1952.15C467.465 2155.42 755.378 2404.6 880.254 2493.12L73.7253 1877.64C48.4584 1858.37 33.8613 1829.88 33.8613 1799.85V1335.76M453.589 1089.86V545.995M453.589 1089.86L33.8613 1335.76M33.8613 1335.76V861.394C33.8613 827.91 51.9877 796.583 82.3071 777.665L453.589 545.995M736.408 1137.9V1626.8C736.408 1662.3 756.768 1695.22 790.097 1713.6L1225.47 1953.79C1260.93 1973.36 1305.38 1973.36 1340.84 1953.79L1776.21 1713.6C1809.54 1695.22 1829.9 1662.3 1829.9 1626.8V1137.9C1829.9 1102.4 1809.54 1069.48 1776.21 1051.09L1340.84 810.902C1305.38 791.337 1260.93 791.337 1225.47 810.902L790.097 1051.09C756.768 1069.48 736.408 1102.4 736.408 1137.9Z" stroke="url(#paint0_linear_292_5)" stroke-width="10" stroke-linejoin="round"/>
<defs>
<linearGradient id="paint0_linear_292_5" x1="1277.44" y1="30.8535" x2="1277.44" y2="2493.12" gradientUnits="userSpaceOnUse">
<stop stop-color="#155DFC"/>
</linearGradient>
</defs>
</svg>
