<svg width="710" height="169" viewBox="0 0 710 169" fill="none" xmlns="http://www.w3.org/2000/svg">
<path d="M667.808 22.0393C669.625 22.0393 671.035 23.3497 671.035 25.0633V44.4207H706.018C707.834 44.4207 709.246 45.7311 709.246 47.4447V57.4254C709.246 59.0378 707.834 60.4494 706.018 60.5505H671.037V89.9884C671.037 102.289 675.472 107.229 687.971 107.229H703.698C705.515 107.229 706.926 108.54 706.926 110.253V120.234C706.926 121.848 705.515 123.259 703.698 123.259H684.953C661.961 123.259 651.277 112.773 651.277 90.0909V60.4494H630.611C628.796 60.4494 627.383 59.1389 627.383 57.4254V47.4447C627.383 45.8309 628.796 44.4207 630.611 44.4207H651.279V25.0633C651.279 23.4495 652.689 22.0379 654.507 22.0379L667.808 22.0393ZM603.288 44.4193C605.103 44.4193 606.516 45.7298 606.516 47.4433V107.228H631.212C633.028 107.228 634.44 108.538 634.44 110.252V120.232C634.44 121.846 633.028 123.258 631.212 123.258H562.659C560.844 123.258 559.432 121.946 559.432 120.232V110.252C559.432 108.639 560.844 107.228 562.659 107.228H586.754V60.448H562.659C560.844 60.448 559.432 59.1376 559.432 57.424V47.4447C559.432 45.8309 560.844 44.4207 562.659 44.4207L603.288 44.4193ZM604.095 13.9716C604.918 13.9667 605.711 14.2777 606.312 14.8406C606.912 15.4035 607.274 16.1753 607.322 16.997V29.7994C607.322 31.4132 605.909 32.8248 604.095 32.8248H585.948C584.133 32.8248 582.722 31.5144 582.722 29.7994V16.997C582.722 15.3832 584.133 13.9716 585.948 13.9716H604.095ZM544.21 107.228H523.644V16.9984C523.644 15.2834 522.231 13.973 520.416 13.973H480.09C478.276 13.973 476.864 15.3846 476.864 16.9984V26.9791C476.864 28.6926 478.276 30.0031 480.09 30.0031H503.883V107.229H477.167C475.353 107.229 473.94 108.641 473.94 110.253V120.234C473.94 121.947 475.353 123.259 477.167 123.259H544.209C546.024 123.259 547.437 121.846 547.437 120.234V110.253C547.437 108.54 546.024 107.229 544.209 107.229M434.721 42.908C427.865 42.908 422.925 44.4207 419.095 48.0487L414.358 52.5867H410.022L408.408 46.7396C408.204 46.0692 407.791 45.482 407.228 45.0645C406.665 44.647 405.983 44.4213 405.283 44.4207H396.209C394.395 44.4207 392.982 45.8309 392.982 47.4447V150.682C392.982 152.395 394.395 153.706 396.209 153.706H409.516C411.331 153.706 412.744 152.294 412.744 150.682V128.299L411.029 116.302L415.466 115.294L420.203 119.831C423.934 123.259 428.47 124.973 435.225 124.973C454.785 124.973 466.58 111.462 466.58 83.9404C466.479 56.4169 454.783 42.908 434.721 42.908ZM428.168 108.438C418.188 108.438 412.643 103.296 412.643 93.518V74.1606C412.643 64.3807 418.087 59.2415 428.168 59.2415C440.367 59.2415 445.913 66.9019 445.913 83.7381C445.811 100.777 440.367 108.438 428.168 108.438ZM336.626 42.908C311.22 42.908 297.61 56.4169 297.61 83.8393C297.61 111.363 311.119 124.872 336.123 124.872C355.479 124.872 367.981 116.807 371.308 102.994C371.811 101.079 370.199 99.264 368.182 99.264H356.084C354.773 99.264 353.563 100.07 353.059 101.281C350.942 107.229 344.893 110.052 336.727 110.052C324.024 110.052 317.975 103.096 317.167 86.8633H372.315C375.341 56.5181 362.738 42.908 336.626 42.908ZM317.775 74.5637C319.693 62.6672 325.641 57.1234 336.529 57.1234C348.123 57.1234 353.567 63.2739 353.869 74.5637H317.775ZM258.293 47.9489L253.756 52.4856H249.22L247.808 46.7396C247.506 45.3267 246.196 44.4207 244.683 44.4207H215.648C213.833 44.4207 212.421 45.8309 212.421 47.4447V57.4254C212.421 59.1389 213.833 60.4494 215.648 60.4494H232.786V107.229H212.825C211.01 107.229 209.597 108.641 209.597 110.253V120.234C209.597 121.947 211.01 123.259 212.825 123.259H275.633C277.448 123.259 278.86 121.846 278.86 120.234V110.253C278.86 108.54 277.448 107.229 275.633 107.229H252.547V74.1606C252.547 64.8863 257.991 60.0463 268.677 60.0463H286.017C287.832 60.0463 289.245 58.6347 289.245 57.0223V46.0317C289.245 44.3182 287.832 43.0064 286.017 43.0064H275.735C268.173 42.9066 262.226 44.3196 258.293 47.9489Z" fill="white"/>
<path d="M9.15526e-08 10.4794C0.000367394 7.70019 1.10456 5.03493 3.06975 3.06975C5.03493 1.10456 7.70019 0.000367302 10.4794 0L59.3869 0C62.1661 0.000367302 64.8313 1.10456 66.7965 3.06975C68.7617 5.03493 69.8659 7.70019 69.8663 10.4794V55.8947H10.4808C9.1043 55.8947 7.74131 55.6235 6.46963 55.0967C5.19796 54.5699 4.0425 53.7978 3.06926 52.8244C2.09601 51.8511 1.32403 50.6955 0.797404 49.4238C0.270777 48.152 -0.000181837 46.789 9.15526e-08 45.4125V10.4794ZM69.8663 55.8947H129.252C132.031 55.8947 134.697 56.9987 136.662 58.9639C138.628 60.9292 139.732 63.5946 139.733 66.3741V101.307C139.732 104.087 138.628 106.752 136.662 108.717C134.697 110.683 132.031 111.787 129.252 111.787H69.8663V55.8947ZM9.15526e-08 122.266C6.72757e-08 119.487 1.10403 116.821 3.06926 114.855C5.03448 112.89 7.69995 111.786 10.4794 111.785H69.8649V157.199C69.8645 159.978 68.7605 162.643 66.7956 164.608C64.8307 166.573 62.1658 167.678 59.3869 167.678H10.4794C7.70019 167.678 5.03493 166.574 3.06975 164.609C1.10456 162.644 0.000367394 159.978 9.15526e-08 157.199L9.15526e-08 122.266Z" fill="white"/>
</svg>
