<svg width="776" height="255" viewBox="0 0 776 255" fill="none" xmlns="http://www.w3.org/2000/svg">
<path d="M263.161 147.833V145.863H246.35V148.082C247.398 173.09 264.21 189.652 294.201 189.652C322.78 189.652 342.24 174.811 342.24 152.332C342.571 147.212 341.617 142.091 339.465 137.434C337.314 132.776 334.033 128.73 329.921 125.663C322.117 120.608 313.318 117.289 304.119 115.932L301.779 115.381L299.13 114.823C276.899 110.143 269.812 106.081 269.812 94.0103C269.812 81.9399 280.039 73.5615 297.153 73.5615C300.734 73.2653 304.337 73.7274 307.727 74.9176C311.118 76.1079 314.219 77.9995 316.828 80.4691C319.438 82.9387 321.498 85.9308 322.873 89.2502C324.249 92.5696 324.909 96.1417 324.811 99.7334V101.831H341.191V99.6727C340.579 74.671 323.828 57.793 296.729 57.793C269.63 57.793 252.509 73.8707 252.509 94.75C252.139 99.8114 253.078 104.883 255.234 109.477C257.39 114.071 260.692 118.033 264.822 120.982C272.717 125.744 281.536 128.767 290.691 129.852L292.6 130.222L294.51 130.591C302.117 131.538 309.509 133.767 316.372 137.181C319.24 138.706 321.605 141.03 323.179 143.872C324.754 146.714 325.47 149.952 325.241 153.192C325.241 166.433 314.092 173.95 294.443 173.95C274.795 173.95 264.458 164.59 263.161 147.833ZM377.221 55.4528V53.3007H360.719V187.13H377.281V162.001L394.711 145.002L425.812 186.33L426.491 187.191H447.061L444.412 183.741L406.478 133.732L441.52 98.8725L445.218 95.1744H422.671L422.059 95.7927L377.281 140.88L377.221 55.4528ZM531.93 146.603H533.961V139.764C533.961 112.725 516.04 92.7797 489.559 92.7797C463.078 92.7797 444.29 114.023 444.29 140.813C444.29 167.603 462.272 189.034 489.741 189.034C499.246 189.322 508.58 186.458 516.289 180.889C523.998 175.32 529.648 167.358 532.36 158.243L533.221 155.472H516.289L515.791 156.891C513.854 162.048 510.343 166.465 505.755 169.516C501.168 172.566 495.737 174.097 490.232 173.89C482.856 173.977 475.733 171.203 470.358 166.15C464.984 161.097 461.777 154.158 461.411 146.79L531.93 146.603ZM461.908 132.562C462.823 125.809 466.178 119.626 471.341 115.178C476.503 110.73 483.115 108.327 489.929 108.421C496.714 108.191 503.33 110.562 508.424 115.05C513.518 119.537 516.704 125.802 517.331 132.562H461.908ZM588.651 109.773H590.809V95.1198H570.603V70.112H554.282V95.1198H537.283V109.773H554.282V161.45C554.282 178.382 563.085 187.561 578.914 187.561C581.364 187.582 583.813 187.438 586.244 187.13L588.832 186.633L590.433 186.209V170.871L587.844 171.422H585.504C583.995 171.661 582.472 171.805 580.945 171.853H580.521C573.428 171.853 570.603 168.531 570.603 160.213V109.773H588.651ZM640.139 189.283C650.347 189.638 660.337 186.285 668.263 179.842C676.188 173.4 681.512 164.306 683.25 154.241L683.741 151.653H667.051L666.626 153.253C665.383 159.291 662.025 164.688 657.157 168.471C652.289 172.254 646.231 174.175 640.073 173.89C623.079 173.89 611.379 160.461 611.379 141.183C611.379 121.904 623.08 108.36 640.079 108.36C646.234 108.077 652.289 110 657.154 113.781C662.019 117.563 665.376 122.956 666.62 128.991L667.051 130.591H683.62L683.129 128.003C681.391 117.938 676.067 108.844 668.141 102.402C660.216 95.9595 650.225 92.606 640.018 92.9615C613.41 92.9615 594.561 114.332 594.561 141.183C594.561 168.033 613.537 189.283 640.079 189.283H640.139ZM714.041 55.7014V53.5432H697.478V187.13H714.411V133.174C714.095 129.878 714.497 126.552 715.589 123.425C716.682 120.299 718.439 117.447 720.74 115.065C723.04 112.683 725.83 110.828 728.917 109.627C732.003 108.427 735.313 107.91 738.619 108.112C752.538 108.112 759.559 116.175 759.559 131.452V187.13H776V129.052C776 107.433 762.638 93.0828 740.589 93.0828C735.773 92.9425 730.978 93.7635 726.483 95.4976C721.989 97.2318 717.885 99.8445 714.411 103.183L714.041 55.7014Z" fill="white"/>
<path d="M43.1104 36.9199L98.5399 31.1302L153.969 36.9199L197.074 94.0711L98.5399 207.64L0 94.0711L43.1104 36.9199Z" fill="white"/>
<path d="M39.8488 94.0715L98.3519 207.64L0 94.0715H39.8488ZM156.861 94.0715L98.358 207.64L196.71 94.0715H156.861Z" fill="white"/>
<path d="M39.8488 94.0715H156.861L98.358 207.64L39.8488 94.0715Z" fill="white"/>
<path d="M98.358 31.0695L42.9286 36.9137L39.8488 94.071L98.358 31.0695ZM98.358 31.0695L153.781 36.9137L156.861 94.071L98.358 31.0695Z" fill="white"/>
<path d="M196.71 94.0716L153.787 36.9143L156.861 94.0716H196.71ZM0 94.0716L42.9225 36.9143L39.8488 94.0716H0Z" fill="white"/>
<path d="M98.358 31.0695L39.8488 94.071H156.861L98.358 31.0695Z" fill="white"/>
</svg>
