<svg width="709" height="532" viewBox="0 0 709 532" fill="none" xmlns="http://www.w3.org/2000/svg">
<path d="M353.963 286.46V354.881C469.934 354.881 560.232 242.845 522.295 121.321C505.716 68.2152 463.517 26.0159 410.411 9.43747C288.884 -28.4996 176.848 61.7982 176.848 177.77H245.428C245.436 177.77 245.444 177.753 245.444 177.753C245.455 104.97 317.48 48.7039 393.999 76.4712C422.348 86.7573 444.958 109.365 455.253 137.711C483.023 214.183 426.837 286.183 354.121 286.285V218.086L354.11 218.08H285.741L285.73 218.091V286.46H353.963ZM285.716 339.009H233.186L233.175 338.995V286.46H285.73V338.998C285.73 338.998 285.724 339.009 285.716 339.009ZM233.211 286.46H189.176C189.155 286.456 189.144 286.452 189.142 286.449V242.433C189.142 242.433 189.156 242.399 189.176 242.399H233.178C233.197 242.399 233.211 242.413 233.211 242.413V286.46ZM61.1956 424.288C52.2804 418.101 41.1857 414.966 28.2215 414.966H0V504.502H28.2215C41.1552 504.502 52.2528 501.193 61.2066 494.67C66.081 491.211 69.9085 486.378 72.5894 480.313C75.2537 474.276 76.6052 467.158 76.6052 459.154C76.6052 451.241 75.2537 444.212 72.5839 438.263C69.9085 432.281 66.0755 427.581 61.1956 424.288ZM16.4843 430.099H25.3412C35.198 430.099 43.3099 432.038 49.4638 435.868C56.2907 439.986 59.7554 447.818 59.7554 459.151C59.7554 470.825 56.2824 479.012 49.4361 483.495H49.4306C43.5398 487.389 35.4749 489.367 25.4631 489.367H16.4843V430.099ZM88.1625 504.502H104.032V441.44H88.1625V504.502ZM96.2495 413.864C93.5354 413.864 91.2007 414.825 89.3174 416.708C87.4147 418.522 86.4482 420.824 86.4482 423.543C86.4482 426.258 87.4092 428.592 89.3063 430.487C91.2007 432.386 93.5382 433.347 96.2495 433.347C98.9609 433.347 101.296 432.386 103.196 430.487C105.095 428.587 106.054 426.252 106.054 423.543C106.054 420.826 105.09 418.528 103.196 416.722C102.293 415.798 101.211 415.069 100.017 414.577C98.8227 414.086 97.5408 413.843 96.2495 413.864ZM161.66 446.711C156.875 442.451 151.532 439.969 145.755 439.969C136.995 439.969 129.714 442.999 124.117 448.97C118.45 454.892 115.573 462.513 115.573 471.625C115.573 480.524 118.403 488.121 123.997 494.213C129.633 500.107 136.956 503.093 145.755 503.093C151.873 503.093 157.132 501.389 161.417 498.024V499.478C161.417 504.71 160.015 508.781 157.254 511.576C154.493 514.367 150.665 515.783 145.88 515.783C138.554 515.783 133.962 512.902 128.373 505.35L117.567 515.733L117.857 516.143C120.192 519.416 123.768 522.623 128.487 525.67C133.206 528.702 139.139 530.245 146.123 530.245C155.545 530.245 163.164 527.34 168.778 521.615C174.42 515.857 177.28 508.15 177.28 498.711V441.437H161.66V446.711ZM157.498 483.952C154.725 487.104 151.164 488.63 146.613 488.63C142.063 488.63 138.521 487.104 135.787 483.958C133.07 480.828 131.688 476.674 131.688 471.622C131.688 466.488 133.07 462.286 135.79 459.132C138.485 456.013 142.127 454.429 146.613 454.429C151.158 454.429 154.723 455.969 157.498 459.14C160.259 462.292 161.66 466.49 161.66 471.622C161.66 476.674 160.259 480.826 157.498 483.952ZM190.862 504.502H206.732V441.44H190.862V504.502ZM198.949 413.864C196.238 413.864 193.9 414.825 192.017 416.708C190.114 418.522 189.148 420.824 189.148 423.543C189.148 426.258 190.109 428.592 192.006 430.487C193.9 432.386 196.238 433.347 198.952 433.347C200.244 433.368 201.526 433.125 202.72 432.633C203.914 432.141 204.996 431.411 205.898 430.487C207.795 428.589 208.756 426.252 208.756 423.543C208.756 420.826 207.787 418.528 205.898 416.722C204.995 415.798 203.914 415.069 202.72 414.577C201.525 414.086 200.241 413.843 198.949 413.864ZM241.517 424.402H225.897V441.44H216.821V455.903H225.894V482.097C225.894 490.295 227.531 496.16 230.763 499.528C234.003 502.913 239.756 504.627 247.862 504.627C250.44 504.627 253.035 504.541 255.572 504.378L256.287 504.328V489.876L250.848 490.162C247.067 490.162 244.547 489.497 243.348 488.193C242.129 486.863 241.517 484.055 241.517 479.848V455.903H256.287V441.44H241.517V424.402ZM310.75 446.157C305.939 442.052 299.292 439.969 290.992 439.969C285.71 439.969 280.772 441.127 276.308 443.393C272.176 445.489 268.118 448.959 265.54 453.501L265.701 453.695L275.862 463.422C280.047 456.747 284.702 454.429 290.873 454.429C294.188 454.429 296.938 455.321 299.054 457.074C301.159 458.816 302.184 461.032 302.184 463.837V466.9C298.401 465.728 294.465 465.121 290.504 465.1C282.606 465.1 276.18 466.956 271.409 470.62C266.573 474.331 264.125 479.635 264.125 486.395C264.125 492.319 266.188 497.133 270.279 500.711C274.405 504.162 279.557 505.915 285.602 505.915C291.643 505.915 297.295 503.478 302.427 499.309V504.502H318.05V463.962C318.05 456.288 315.594 450.297 310.75 446.157ZM282.575 480.405C284.375 479.15 286.918 478.516 290.136 478.516C293.955 478.516 298.004 479.283 302.184 480.798V486.985C298.733 490.189 294.124 491.818 288.483 491.818C285.735 491.818 283.6 491.209 282.132 489.998C280.692 488.818 279.991 487.315 279.991 485.412C279.991 483.249 280.836 481.609 282.575 480.405ZM330.693 504.502H346.563V414.963H330.693V504.502ZM404.141 505.851C378.689 505.851 357.981 485.146 357.981 459.694C357.981 434.242 378.686 413.534 404.138 413.534C429.59 413.534 450.295 434.242 450.295 459.694C450.295 485.146 429.593 505.851 404.141 505.851ZM404.138 429.8C387.654 429.8 374.247 443.21 374.247 459.694C374.247 476.176 387.654 489.583 404.136 489.583C420.617 489.583 434.027 476.178 434.027 459.694C434.027 443.21 420.617 429.802 404.136 429.802M506.874 481.956C504.035 485.138 501.133 487.896 498.895 489.328C496.702 490.735 493.932 491.455 490.667 491.455C485.989 491.455 482.231 489.752 479.168 486.243C476.121 482.753 474.579 478.272 474.579 472.91C474.579 467.554 476.102 463.078 479.11 459.614C482.131 456.124 485.87 454.435 490.542 454.435C495.655 454.435 501.044 457.611 505.661 463.073L516.149 453.014C509.309 444.113 500.587 439.972 490.177 439.972C481.464 439.972 473.911 443.146 467.73 449.402C461.581 455.612 458.463 463.524 458.463 472.91C458.463 482.299 461.578 490.231 467.721 496.485C473.87 502.744 481.425 505.918 490.177 505.918C501.665 505.918 510.94 500.957 517.191 491.87L506.874 481.956ZM572.002 450.253C569.754 447.118 566.69 444.595 562.891 442.747C559.107 440.906 554.693 439.972 549.78 439.972C540.923 439.972 533.672 443.24 528.233 449.693C522.948 456.091 520.273 464.048 520.273 473.342C520.273 482.897 523.209 490.81 529.003 496.853C534.763 502.866 542.476 505.918 551.923 505.918C562.625 505.918 571.407 501.589 578.023 493.053L578.381 492.593L568.028 482.645C567.07 483.803 565.71 485.116 564.467 486.284C562.902 487.763 561.428 488.907 559.855 489.691C557.482 490.871 554.823 491.455 551.846 491.455C547.451 491.455 543.809 490.162 541.025 487.611C538.422 485.224 536.899 482.005 536.494 478.031H578.536L578.68 472.24C578.68 468.141 578.12 464.192 577.021 460.497C575.931 456.827 574.235 453.364 572.002 450.253ZM537.32 465.1C538.084 462.081 539.474 459.572 541.466 457.622C543.615 455.504 546.415 454.432 549.782 454.432C553.632 454.432 556.609 455.526 558.634 457.692C560.512 459.691 561.57 462.181 561.791 465.1H537.32ZM632.946 446.159C628.135 442.055 621.486 439.972 613.188 439.972C607.907 439.972 602.969 441.13 598.504 443.395C594.369 445.492 590.312 448.962 587.736 453.504L587.897 453.698L598.058 463.425C602.243 456.75 606.898 454.432 613.069 454.432C616.384 454.432 619.134 455.324 621.25 457.077C623.355 458.819 624.38 461.035 624.38 463.84V466.903C620.596 465.73 616.659 465.124 612.698 465.103C604.805 465.103 598.374 466.958 593.602 470.623C588.769 474.334 586.318 479.637 586.318 486.398C586.318 492.322 588.384 497.135 592.475 500.714C596.599 504.164 601.753 505.918 607.796 505.918C613.839 505.918 619.492 503.48 624.621 499.312V504.505H640.246V463.965C640.246 456.29 637.79 450.3 632.946 446.159ZM604.771 480.407C606.572 479.153 609.111 478.519 612.332 478.519C616.151 478.519 620.201 479.286 624.38 480.801V486.988C620.926 490.192 616.32 491.821 610.676 491.821C607.932 491.821 605.796 491.211 604.328 490.001C602.888 488.821 602.188 487.317 602.188 485.415C602.188 483.252 603.032 481.612 604.771 480.407ZM701.292 447.397C696.872 442.473 690.663 439.972 682.828 439.972C676.533 439.972 671.42 441.781 667.596 445.345V441.44H652.034V504.505H667.903V469.725C667.903 464.948 669.038 461.154 671.282 458.445C673.52 455.747 676.594 454.432 680.684 454.432C684.279 454.432 687.002 455.606 689.012 458.018C691.031 460.442 692.053 463.779 692.053 467.95V504.505H707.923V467.95C707.923 459.215 705.693 452.299 701.292 447.397Z" fill="white"/>
</svg>
