<svg width="707" height="203" viewBox="0 0 707 203" fill="none" xmlns="http://www.w3.org/2000/svg">
<path d="M45.7008 17.4924C43.9015 17.4924 42.069 17.9671 40.3856 18.9054L5.20481 39.6308C1.83797 41.5129 0 44.9736 0 48.7379V90.4978C0 94.262 1.83797 97.7282 5.20481 99.6048L40.3856 120.33C43.4434 122.212 47.4173 122.212 50.7842 120.33L74.6446 106.201L90.8607 96.4698L114.721 82.3401C117.779 80.4525 121.764 80.4525 125.131 82.3401L143.786 93.3237C146.844 95.2114 148.986 98.6665 148.986 102.431V124.729C148.986 128.493 147.148 131.954 143.786 133.836L125.131 145.14C122.068 147.028 118.088 147.028 114.721 145.14L96.0655 134.145C93.0078 132.263 90.8607 128.814 90.8607 125.044V110.594L74.6446 120.33V134.769C74.6446 138.539 76.4826 142 79.8495 143.882L115.025 164.613C118.082 166.495 122.056 166.495 125.423 164.613L160.615 143.887C163.673 142.005 165.803 138.544 165.803 134.78V93.0202C165.803 89.2559 163.982 85.7952 160.615 83.9131L125.125 62.8731C122.062 60.9855 118.082 60.9855 114.716 62.8731L90.8552 77.3229L74.6391 86.7391L50.7787 101.178C47.7209 103.054 43.7469 103.054 40.3801 101.178L21.4043 89.8686C19.843 88.9112 18.5488 87.575 17.6418 85.9839C16.7347 84.3928 16.2443 82.5983 16.2161 80.7671V58.4686C16.2161 54.6989 18.0375 51.2492 21.4043 49.3671L40.071 38.3724C43.1288 36.4848 47.1027 36.4848 50.4696 38.3724L69.1363 49.3671C72.194 51.2492 74.3411 54.6988 74.3411 58.4741V72.9185L90.5461 63.1822V48.7434C90.5461 44.9736 88.7192 41.5129 85.3578 39.6363L50.7787 18.8999C49.2482 17.9663 47.488 17.477 45.6953 17.4869L45.7008 17.4924Z" fill="white"/>
<path d="M374.344 23.5782V124.252H393.551V23.5782H374.344ZM250.449 52.9581C241.464 52.9581 234.553 56.3029 230.414 61.734V54.0731H211.206V152.661H230.414V117.982C234.145 122.718 240.912 125.362 248.788 125.362C268.823 125.362 282.368 111.028 282.368 89.1655C282.368 67.3031 269.933 52.9581 250.449 52.9581ZM325.977 52.9581C304.562 52.9581 289.229 68.2801 289.229 89.1655C289.229 110.051 304.562 125.362 325.977 125.362C347.392 125.362 362.736 110.051 362.736 89.1655C362.736 68.2801 347.392 52.9581 325.977 52.9581ZM505.789 52.9581C485.477 52.9581 473.169 67.3086 473.169 89.1655C473.169 111.022 485.472 125.362 506.065 125.362C514.217 125.362 521.536 122.304 525.134 117.149V126.344C525.134 132.885 520.851 137.477 515.045 137.477H482.977V152.655H518.08C533.833 152.655 544.336 143.052 544.336 128.425V54.0786H524.991V61.0331C521.116 56.1649 514.217 52.9581 505.789 52.9581ZM592.764 52.9581C571.348 52.9581 556.004 68.2801 556.004 89.1655C556.004 110.051 571.348 125.362 592.764 125.362C614.179 125.362 629.512 110.051 629.512 89.1655C629.512 68.2801 614.179 52.9581 592.764 52.9581ZM680.506 52.9581C670.974 52.9581 663.23 56.9983 659.367 63.8203V54.0731H640.021V124.247H659.367V85.8208C659.367 76.7689 665.305 70.2284 673.734 70.2284C681.742 70.2284 687.14 76.3494 687.14 84.8438V124.252H706.486V80.5276C706.486 64.3723 696.258 52.9581 680.506 52.9581ZM402.509 54.0731L427.799 123.695L417.577 152.661H435.951L445.759 123.977L471.049 54.0731H451.29L436.785 99.3323L422.136 54.0731H402.509ZM246.442 69.5274C256.526 69.5274 263.442 77.3319 263.442 89.1655C263.442 100.867 256.526 108.655 246.442 108.655C236.077 108.655 229.304 100.861 229.304 89.1655C229.304 77.3319 236.077 69.5274 246.442 69.5274ZM325.977 69.5274C336.342 69.5274 343.391 77.4699 343.391 89.1655C343.391 100.723 336.342 108.655 325.977 108.655C315.611 108.655 308.563 100.723 308.563 89.1655C308.563 77.4644 315.617 69.5274 325.977 69.5274ZM509.1 69.5274C519.46 69.5274 526.238 77.3319 526.238 89.1655C526.238 100.999 519.46 108.655 509.1 108.655C498.873 108.655 492.1 100.999 492.1 89.1655C492.1 77.3319 498.873 69.5274 509.1 69.5274ZM592.764 69.5274C603.124 69.5274 610.166 77.4699 610.166 89.1655C610.166 100.723 603.124 108.655 592.764 108.655C582.404 108.655 575.35 100.723 575.35 89.1655C575.35 77.4644 582.398 69.5274 592.764 69.5274Z" fill="white"/>
</svg>
