<svg width="606" height="606" viewBox="0 0 606 606" fill="none" xmlns="http://www.w3.org/2000/svg">
<path d="M602.869 455.282L502.829 559.817C500.65 562.102 498.018 563.908 495.102 565.119C492.179 566.385 489.021 567.022 485.836 566.988H11.6153C9.36238 566.99 7.15538 566.351 5.25235 565.145C3.36666 563.952 1.87377 562.231 0.959845 560.196C0.0642864 558.175 -0.208247 555.933 0.177095 553.757C0.559298 551.569 1.58831 549.546 3.13135 547.949L103.248 443.44C105.419 441.157 108.042 439.352 110.949 438.137C113.863 436.866 117.011 436.221 120.19 436.243H594.385C596.641 436.249 598.848 436.897 600.748 438.112C602.634 439.304 604.127 441.026 605.041 443.061C605.936 445.082 606.209 447.323 605.824 449.5C605.441 451.687 604.412 453.685 602.869 455.282ZM502.829 244.848C500.65 242.563 498.018 240.757 495.102 239.546C492.18 238.272 489.023 237.627 485.836 237.652H11.6153C9.36238 237.65 7.15538 238.289 5.25235 239.495C3.36288 240.695 1.86961 242.425 0.959845 244.47C0.069328 246.483 -0.203112 248.715 0.177095 250.883C0.559298 253.071 1.58831 255.094 3.13135 256.691L103.248 361.226C105.419 363.508 108.042 365.314 110.949 366.528C113.865 367.79 117.013 368.427 120.19 368.397H594.385C596.638 368.399 598.845 367.759 600.748 366.553C602.634 365.361 604.127 363.64 605.041 361.604C605.936 359.584 606.209 357.342 605.824 355.166C605.441 352.978 604.412 350.955 602.869 349.358L502.829 244.848ZM11.6153 169.755H485.861C489.048 169.781 492.206 169.135 495.128 167.861C498.043 166.65 500.675 164.844 502.854 162.559L602.895 58.0237C604.438 56.4266 605.467 54.4038 605.849 52.2162C606.221 50.0455 605.94 47.8132 605.041 45.8027C604.127 43.7674 602.634 42.0461 600.748 40.8537C598.845 39.6477 596.638 39.0084 594.385 39.0104H120.19C117.013 38.9803 113.865 39.6169 110.949 40.8789C108.042 42.0935 105.419 43.8992 103.248 46.1814L3.1566 150.742C1.61356 152.339 0.584548 154.362 0.202345 156.549C-0.185778 158.715 0.0778627 160.947 0.959845 162.963C1.87377 164.998 3.36666 166.719 5.25235 167.912C7.15269 169.127 9.35988 169.749 11.6153 169.755Z" fill="white"/>
</svg>
