<svg width="738" height="236" viewBox="0 0 738 236" fill="none" xmlns="http://www.w3.org/2000/svg">
<path d="M118 19.6666C105.087 19.6666 92.2998 22.2101 80.3694 27.1518C68.4391 32.0935 57.5989 39.3367 48.4678 48.4678C30.0267 66.9089 19.6666 91.9204 19.6666 118C19.6666 161.463 47.8883 198.338 86.9267 211.417C91.8433 212.203 93.4167 209.155 93.4167 206.5V189.882C66.1783 195.782 60.3766 176.705 60.3766 176.705C55.8533 165.298 49.4616 162.25 49.4616 162.25C40.5133 156.153 50.15 156.35 50.15 156.35C59.9833 157.038 65.195 166.478 65.195 166.478C73.75 181.425 88.205 177 93.81 174.64C94.695 168.248 97.2517 163.922 100.005 161.463C78.175 159.005 55.2633 150.548 55.2633 113.083C55.2633 102.168 59 93.4167 65.3916 86.435C64.4083 83.9767 60.9666 73.75 66.375 60.475C66.375 60.475 74.635 57.82 93.4167 70.505C101.185 68.3416 109.642 67.26 118 67.26C126.358 67.26 134.815 68.3416 142.583 70.505C161.365 57.82 169.625 60.475 169.625 60.475C175.033 73.75 171.592 83.9767 170.608 86.435C177 93.4167 180.737 102.168 180.737 113.083C180.737 150.647 157.727 158.907 135.798 161.365C139.338 164.413 142.583 170.412 142.583 179.557V206.5C142.583 209.155 144.157 212.302 149.172 211.417C188.21 198.24 216.333 161.463 216.333 118C216.333 105.087 213.79 92.2998 208.848 80.3694C203.906 68.4391 196.663 57.5989 187.532 48.4678C178.401 39.3367 167.561 32.0935 155.631 27.1518C143.7 22.2101 130.913 19.6666 118 19.6666Z" fill="white"/>
<path d="M381.632 111.609V168.052C381.632 168.445 381.533 169.134 381.042 169.33C381.042 169.33 368.75 178.082 348.493 178.082C324.008 178.082 295 170.412 295 119.869C295 69.3253 320.37 58.902 345.15 59.0004C366.587 59.0004 375.24 63.8187 376.617 64.7037C377.01 65.1954 377.207 65.5887 377.207 66.0804L373.077 83.5837C373.077 84.4687 372.192 85.5504 371.11 85.2554C367.57 84.1737 362.26 82.0104 349.772 82.0104C335.317 82.0104 319.78 86.1404 319.78 118.689C319.78 151.237 334.53 155.072 345.15 155.072C354.197 155.072 357.442 153.99 357.442 153.99V131.374H342.987C341.905 131.374 341.118 130.587 341.118 129.702V111.609C341.118 110.724 341.905 109.937 342.987 109.937H379.763C380.845 109.937 381.632 110.724 381.632 111.609ZM734.157 134.52C734.157 168.249 723.242 177.885 704.165 177.885C688.039 177.885 679.385 169.724 679.385 169.724C679.385 169.724 678.992 174.247 678.5 174.837C678.205 175.427 677.714 175.624 677.124 175.624H662.57C661.587 175.624 660.702 174.837 660.702 173.952L660.899 64.7037C660.899 63.8187 661.685 63.032 662.57 63.032H683.515C684.4 63.032 685.187 63.8187 685.187 64.7037V101.775C685.187 101.775 693.25 96.5637 705.05 96.5637L704.952 96.367C716.752 96.367 734.157 100.792 734.157 134.52ZM567.187 63.2287C568.072 63.2287 568.859 64.0154 568.859 64.9004V174.149C568.859 175.034 568.072 175.82 567.187 175.82H546.242C545.357 175.82 544.57 175.034 544.57 174.149L544.767 127.44H512.219V174.149C512.219 175.034 511.432 175.82 510.547 175.82H489.602C488.815 175.82 487.93 175.034 487.93 174.149V64.9004C487.93 64.0154 488.717 63.2287 489.602 63.2287H510.547C511.432 63.2287 512.219 64.0154 512.219 64.9004V105.119H544.767V64.9004C544.767 64.0154 545.554 63.2287 546.439 63.2287H567.187ZM648.41 99.022C649.492 99.022 650.279 99.8087 650.279 100.694L650.082 174.149C650.082 175.034 649.492 175.82 648.41 175.82H635.234C634.545 175.82 633.857 175.427 633.66 174.935C633.365 174.345 632.874 170.51 632.874 170.51C632.874 170.51 621.762 178.082 608.094 178.082C591.475 178.082 579.38 172.674 579.38 151.04V100.792C579.38 99.907 580.167 99.1204 581.052 99.1204H602.095C602.98 99.1204 603.767 99.907 603.767 100.792V147.5C603.767 154.875 605.93 158.219 613.305 158.219C620.68 158.219 626.089 154.384 626.089 154.384V100.89C626.089 99.8087 626.679 99.022 627.76 99.022H648.41ZM477.251 157.737H477.3C477.699 157.825 478.055 158.049 478.308 158.37C478.56 158.69 478.694 159.089 478.687 159.497V174.247C478.687 174.935 478.392 175.624 477.802 175.82C476.819 176.312 470.525 177.984 465.313 177.984C453.907 177.984 437.19 175.525 437.19 151.532V119.279H426.275C425.39 119.279 424.603 118.492 424.603 117.41V104.037C424.603 103.25 425.095 102.562 425.882 102.365C426.57 102.267 437.289 99.612 437.289 99.612V78.2737C437.289 77.487 437.78 76.9954 438.665 76.9954H459.905C460.79 76.9954 461.282 77.487 461.282 78.2737V99.022H476.917C477.704 99.022 478.49 99.8087 478.49 100.694V117.41C478.49 118.492 477.802 119.279 476.917 119.279H461.282V150.067C461.282 154.689 463.937 158.229 471.607 158.229C474.036 158.229 476.337 157.747 477.251 157.737ZM415.36 98.9237C416.245 98.9237 417.032 99.7104 417.032 100.595V173.067C417.032 174.837 416.54 175.722 414.573 175.722H395.693C394.022 175.722 392.743 175.034 392.743 173.067V100.89C392.743 99.8087 393.53 98.9237 394.415 98.9237H415.36ZM710.262 136.094C710.262 118.295 703.084 115.935 695.512 116.722C689.612 117.115 684.892 120.065 684.892 120.065V154.679C684.892 154.679 689.71 158.022 696.889 158.219C707.017 158.514 710.262 154.875 710.262 136.094ZM405.035 65.687C412.41 65.687 418.408 71.6854 418.408 79.257C418.408 86.8287 412.41 92.827 405.035 92.827C397.463 92.827 391.465 86.8287 391.465 79.257C391.465 71.6854 397.463 65.687 405.035 65.687ZM477.212 157.629L477.31 157.727H477.3L477.251 157.717V157.727C477.163 157.717 477.104 157.619 477.015 157.619L477.212 157.629Z" fill="white"/>
</svg>
