<svg width="843" height="233" viewBox="0 0 843 233" fill="none" xmlns="http://www.w3.org/2000/svg">
<path d="M114.378 11.0181C116.833 11.0174 119.235 11.7332 121.289 13.0777C123.343 14.4222 124.96 16.3369 125.941 18.587C126.032 18.7925 126.18 18.9671 126.369 19.0894C126.557 19.2117 126.777 19.2762 127.002 19.2752C127.163 19.2768 127.323 19.2424 127.469 19.1747C127.615 19.1069 127.745 19.0074 127.848 18.8833C129.033 17.4693 130.513 16.3313 132.184 15.5492C133.856 14.7671 135.677 14.3597 137.523 14.3555C138.601 14.3555 139.699 14.4971 140.793 14.7885C143.167 15.4244 145.304 16.7405 146.941 18.5749C148.578 20.4093 149.643 22.6821 150.005 25.1136C150.036 25.3025 150.114 25.4805 150.232 25.6311C150.35 25.7818 150.504 25.9001 150.68 25.9751C150.856 26.0502 151.049 26.0796 151.239 26.0605C151.429 26.0414 151.612 25.9745 151.77 25.8661C153.901 24.3737 156.439 23.5729 159.041 23.5725C161.178 23.5725 163.343 24.1159 165.33 25.2618C167.46 26.4892 169.184 28.313 170.29 30.5085C171.396 32.7039 171.835 35.175 171.554 37.617C171.475 38.3003 172.046 38.8667 172.687 38.8667C172.816 38.8656 172.944 38.8428 173.065 38.7992C174.456 38.2928 175.924 38.0336 177.404 38.0336C179.059 38.0309 180.699 38.3553 182.228 38.9882C183.758 39.6212 185.147 40.5501 186.316 41.7217C188.055 43.4586 189.248 45.6665 189.748 48.0731C190.248 50.4797 190.032 52.98 189.128 55.2657C188.839 56 189.412 56.8035 190.182 56.8035L190.281 56.7986C190.65 56.7656 191.019 56.7492 191.387 56.7492C193.604 56.7457 195.782 57.3263 197.702 58.4325C199.623 59.5387 201.218 61.1314 202.327 63.0503C203.555 65.1784 204.135 67.6195 203.994 70.0729C203.852 72.5263 202.996 74.8847 201.531 76.8577C201.044 77.5179 201.439 78.4943 202.249 78.6359C204.618 79.0486 206.819 80.1295 208.593 81.7514C210.367 83.3733 211.641 85.4686 212.265 87.7903C212.901 90.1647 212.829 92.6735 212.057 95.0073C211.285 97.3411 209.847 99.3979 207.92 100.924C207.278 101.435 207.406 102.479 208.152 102.828C210.333 103.838 212.179 105.451 213.473 107.476C214.767 109.501 215.454 111.854 215.454 114.258C215.454 116.712 214.737 119.112 213.392 121.164C212.046 123.216 210.131 124.831 207.88 125.809C207.116 126.144 206.945 127.179 207.584 127.714C209.43 129.254 210.797 131.29 211.523 133.582C212.249 135.874 212.304 138.325 211.682 140.647C211.044 143.022 209.725 145.159 207.889 146.794C206.052 148.429 203.778 149.492 201.345 149.851C200.534 149.973 200.124 150.943 200.594 151.616C201.977 153.582 202.768 155.901 202.875 158.302C202.982 160.702 202.401 163.083 201.199 165.164C199.968 167.292 198.142 169.015 195.945 170.12C193.748 171.224 191.276 171.663 188.834 171.381C188.644 171.364 188.453 171.395 188.278 171.47C188.103 171.546 187.95 171.664 187.832 171.814C187.715 171.964 187.637 172.142 187.605 172.329C187.574 172.517 187.589 172.71 187.651 172.891C188.477 175.147 188.64 177.593 188.121 179.939C187.602 182.285 186.423 184.434 184.722 186.132C183.553 187.303 182.164 188.232 180.635 188.865C179.106 189.498 177.467 189.822 175.812 189.82C174.223 189.821 172.648 189.523 171.169 188.942C171.041 188.893 170.905 188.867 170.768 188.865C170.612 188.866 170.457 188.9 170.313 188.963C170.17 189.027 170.041 189.119 169.935 189.234C169.829 189.349 169.747 189.485 169.695 189.633C169.644 189.781 169.623 189.938 169.634 190.095C169.848 192.488 169.372 194.893 168.263 197.025C167.155 199.157 165.459 200.927 163.377 202.127C161.467 203.235 159.298 203.818 157.089 203.816C154.378 203.816 151.738 202.947 149.557 201.335C149.369 201.196 149.141 201.121 148.906 201.121C148.639 201.12 148.379 201.212 148.173 201.382C147.966 201.552 147.826 201.789 147.775 202.051C147.36 204.419 146.278 206.618 144.655 208.391C143.033 210.163 140.937 211.435 138.616 212.057C137.549 212.343 136.45 212.488 135.346 212.488C133.447 212.484 131.574 212.053 129.865 211.228C128.155 210.402 126.653 209.202 125.47 207.717C125.366 207.587 125.233 207.483 125.083 207.411C124.932 207.34 124.768 207.304 124.601 207.305C124.386 207.303 124.174 207.363 123.991 207.476C123.808 207.59 123.661 207.753 123.567 207.947C122.542 210.15 120.904 212.01 118.848 213.304C116.792 214.599 114.407 215.272 111.977 215.243C109.548 215.215 107.179 214.486 105.154 213.144C103.129 211.802 101.535 209.904 100.562 207.677C100.472 207.472 100.323 207.297 100.134 207.175C99.9456 207.052 99.7252 206.988 99.5004 206.989C99.3395 206.988 99.1802 207.022 99.0342 207.089C98.8881 207.157 98.7588 207.256 98.6557 207.379C97.4704 208.794 95.9904 209.931 94.3192 210.714C92.648 211.496 90.8261 211.903 88.981 211.907C85.956 211.909 83.0311 210.824 80.7395 208.85C78.448 206.875 76.9424 204.143 76.4973 201.151C76.4664 200.962 76.3882 200.784 76.2701 200.633C76.152 200.483 75.9978 200.364 75.8217 200.289C75.6456 200.214 75.4534 200.185 75.263 200.204C75.0725 200.223 74.89 200.29 74.7323 200.398C72.6018 201.89 70.064 202.691 67.4631 202.692C65.254 202.693 63.084 202.11 61.1735 201.001C59.0451 199.772 57.3221 197.948 56.2164 195.753C55.1107 193.558 54.6705 191.088 54.9498 188.646C55.0288 187.962 54.4575 187.398 53.817 187.398C53.688 187.398 53.56 187.421 53.4383 187.464C52.0479 187.97 50.5796 188.229 49.0998 188.229C47.0445 188.23 45.0201 187.728 43.2032 186.768C41.3863 185.807 39.832 184.416 38.6758 182.717C37.5197 181.018 36.7967 179.061 36.57 177.018C36.3433 174.976 36.6197 172.909 37.3752 170.997C37.665 170.264 37.0904 169.459 36.3214 169.459L36.2227 169.464C35.8538 169.497 35.485 169.514 35.1162 169.514C32.9 169.517 30.7219 168.936 28.8015 167.83C26.881 166.724 25.286 165.131 24.177 163.212C22.9482 161.084 22.3687 158.643 22.51 156.19C22.6513 153.737 23.5072 151.378 24.9722 149.405C25.4596 148.745 25.0644 147.768 24.2544 147.625C21.8587 147.21 19.6344 146.111 17.8498 144.46C16.0651 142.809 14.7965 140.677 14.1969 138.32C13.5974 135.964 13.6926 133.485 14.471 131.182C15.2495 128.878 16.6779 126.849 18.5839 125.34C18.7308 125.218 18.8448 125.061 18.9154 124.884C18.9859 124.707 19.0108 124.514 18.9877 124.325C18.9646 124.136 18.8942 123.955 18.7831 123.8C18.672 123.644 18.5236 123.52 18.3517 123.437C16.1704 122.427 14.3236 120.814 13.0294 118.788C11.7352 116.763 11.0476 114.409 11.0479 112.005C11.0481 109.551 11.7653 107.15 13.1114 105.098C14.4576 103.046 16.3739 101.431 18.625 100.453C19.3874 100.119 19.5586 99.0836 18.9214 98.5501C17.053 96.9928 15.6755 94.928 14.955 92.6049C14.2345 90.2818 14.202 87.7998 14.8613 85.4586C15.5207 83.1174 16.8437 81.0171 18.6706 79.4114C20.4975 77.8057 22.7502 76.7632 25.1566 76.4098C25.97 76.2896 26.38 75.3199 25.9091 74.6465C24.527 72.6813 23.7358 70.3619 23.6287 67.9619C23.5217 65.5618 24.1032 63.1812 25.3048 61.1008C26.5336 58.9702 28.3593 57.2459 30.5566 56.1408C32.754 55.0357 35.2268 54.5981 37.6699 54.8821C37.8599 54.8995 38.0512 54.8689 38.2263 54.7933C38.4014 54.7177 38.5548 54.5994 38.6724 54.4492C38.79 54.299 38.868 54.1218 38.8994 53.9336C38.9308 53.7455 38.9145 53.5525 38.8521 53.3722C38.1543 51.4678 37.9267 49.4229 38.1887 47.4116C38.4507 45.4003 39.1945 43.482 40.357 41.8199C41.5195 40.1577 43.0661 38.8009 44.8655 37.8648C46.6648 36.9287 48.6637 36.441 50.692 36.4431C52.2693 36.4431 53.8466 36.7362 55.3351 37.3223C55.4679 37.3739 55.6007 37.3991 55.7335 37.398C55.8903 37.3969 56.0451 37.3636 56.1885 37.3002C56.3319 37.2369 56.4608 37.1448 56.5673 37.0297C56.6738 36.9146 56.7555 36.7789 56.8075 36.631C56.8595 36.4831 56.8806 36.3261 56.8696 36.1698C56.6554 33.7757 57.1306 31.3703 58.2393 29.2377C59.3479 27.105 61.0436 25.3341 63.1262 24.134C65.0366 23.0265 67.206 22.4442 69.4141 22.4463C72.1094 22.4463 74.7619 23.3124 76.9468 24.9292C77.1444 25.0741 77.3733 25.1433 77.5972 25.1433C77.8648 25.1448 78.1244 25.0523 78.3308 24.882C78.5372 24.7117 78.6773 24.4744 78.7267 24.2113C79.2383 21.2864 80.7656 18.6358 83.0396 16.7263C85.3135 14.8168 88.1883 13.7709 91.1576 13.7726C93.0563 13.7769 94.9297 14.2081 96.6391 15.0343C98.3486 15.8605 99.8503 17.0606 101.033 18.5458C101.256 18.8257 101.58 18.9591 101.903 18.9591C102.119 18.9615 102.332 18.902 102.515 18.7876C102.699 18.6733 102.846 18.5089 102.94 18.3136C103.953 16.1341 105.568 14.2894 107.594 12.9969C109.621 11.7044 111.974 11.0178 114.378 11.0181Z" fill="white"/>
<path d="M161.622 164.061C150.097 164.061 151.002 147.805 161.622 147.805C172.242 147.805 173.148 164.061 161.622 164.061ZM66.3846 164.061C54.8592 164.061 55.7631 147.805 66.3846 147.805C77.0061 147.805 77.91 164.061 66.3846 164.061ZM196.444 104H192.54C185.537 104 179.523 99.8183 176.832 93.8251C174.14 99.8183 168.126 104 161.125 104C154.122 104 148.109 99.8183 145.417 93.8251C142.727 99.8183 136.713 104 129.71 104C122.708 104 116.695 99.8183 114.003 93.8251C111.312 99.8183 105.298 104 98.2967 104C91.2943 104 85.2813 99.8183 82.5893 93.8251C79.8973 99.8183 73.8843 104 66.8818 104C59.8793 104 53.8664 99.8183 51.1744 93.8251C48.484 99.8183 42.4694 104 35.4669 104H31.6059C25.7494 110.297 29.4655 115.615 43.9282 115.615V147.942C43.9282 178.324 78.9473 193.515 113.965 193.515C148.982 193.515 184.003 178.324 184.003 147.942V115.616C198.477 115.616 202.256 110.297 196.444 104Z" fill="black"/>
<path d="M115.125 3.77016e-07C110.08 0.00634375 105.157 1.55145 101.013 4.42904C96.089 2.51726 90.6835 2.22372 85.581 3.59098C80.7024 4.90332 76.3411 7.67451 73.0809 11.5336C72.1728 11.432 71.2598 11.3809 70.346 11.3805C66.0158 11.3805 61.7349 12.5281 57.9744 14.6982C53.6047 17.2262 50.1115 21.0285 47.9621 25.5962C42.7405 26.3805 37.9098 28.8241 34.1843 32.5658C30.6131 36.1416 28.2223 40.725 27.3333 45.6998C22.5055 47.8158 18.4776 51.4151 15.8342 55.9755C13.3115 60.3481 12.1893 65.3887 12.6187 70.4185C8.49746 73.7109 5.53864 78.2362 4.17549 83.3319C2.8742 88.2098 3.09597 93.369 4.81103 98.1173C1.68451 102.363 -0.00138725 107.497 8.565e-07 112.769C8.565e-07 117.901 1.61026 122.808 4.44386 126.885C2.52314 131.796 2.22484 137.193 3.59263 142.286C4.90884 147.16 7.68232 151.515 11.5419 154.77C10.9729 159.901 12.0253 165.082 14.5513 169.585C17.0773 174.087 20.9501 177.686 25.6259 179.875C26.4236 185.087 28.8661 189.908 32.5971 193.633C36.1685 197.218 40.7581 199.616 45.741 200.499C47.8252 205.221 51.3312 209.175 55.7699 211.81C60.2087 214.444 65.3589 215.628 70.5025 215.195C73.8 219.304 78.3228 222.254 83.4125 223.614C88.3012 224.922 93.4726 224.707 98.2358 222.998C102.485 226.109 107.615 227.786 112.881 227.785C117.926 227.778 122.849 226.233 126.993 223.355C129.867 224.471 132.923 225.043 136.006 225.041C139.609 225.04 143.168 224.252 146.435 222.734C149.703 221.216 152.6 219.003 154.924 216.251C155.833 216.353 156.746 216.404 157.661 216.404C161.991 216.404 166.272 215.256 170.032 213.086C174.403 210.559 177.896 206.757 180.045 202.188C185.266 201.404 190.097 198.96 193.822 195.219C197.393 191.643 199.783 187.06 200.674 182.086C205.501 179.97 209.529 176.371 212.173 171.811C214.695 167.438 215.818 162.398 215.388 157.368C219.51 154.075 222.468 149.549 223.831 144.453C225.162 139.497 224.877 134.338 223.196 129.671C226.323 125.424 228.009 120.288 228.007 115.014C228.007 109.885 226.395 104.975 223.563 100.9C225.483 95.988 225.781 90.5903 224.413 85.497C223.098 80.6229 220.325 76.2672 216.465 73.0134C217.034 67.8819 215.982 62.7011 213.456 58.1983C210.929 53.6955 207.057 50.0969 202.381 47.9078C201.585 42.6957 199.142 37.8752 195.41 34.1514C191.839 30.5652 187.249 28.1676 182.266 27.2855C180.147 22.4645 176.542 18.4469 171.979 15.8194C167.597 13.2916 162.547 12.1643 157.506 12.589C154.207 8.48073 149.684 5.53166 144.594 4.17055C139.706 2.85657 134.533 3.07206 129.771 4.78798C125.522 1.67618 120.392 -0.000918049 115.125 3.77016e-07ZM115.125 12.2087C117.57 12.2084 119.962 12.9213 122.007 14.2602C124.053 15.5991 125.663 17.5057 126.641 19.7463C126.834 20.1892 127.267 20.4312 127.698 20.4312C127.858 20.432 128.016 20.3975 128.162 20.33C128.307 20.2626 128.435 20.1639 128.538 20.041C129.718 18.6322 131.192 17.4987 132.856 16.7199C134.521 15.9411 136.335 15.536 138.173 15.5329C141.185 15.5317 144.098 16.6129 146.38 18.5795C148.661 20.5461 150.161 23.2671 150.604 26.2466C150.635 26.435 150.713 26.6125 150.831 26.7626C150.948 26.9127 151.102 27.0306 151.278 27.1052C151.454 27.1798 151.645 27.2087 151.835 27.1893C152.025 27.1699 152.207 27.1027 152.364 26.9941C154.487 25.5113 157.014 24.7144 159.604 24.7104C161.803 24.7112 163.963 25.2916 165.867 26.3931C167.987 27.6157 169.704 29.4318 170.805 31.6178C171.906 33.8037 172.344 36.2641 172.064 38.6957C171.987 39.3773 172.555 39.9404 173.194 39.9404C173.322 39.9389 173.449 39.9161 173.569 39.8729C174.954 39.3695 176.417 39.1115 177.891 39.1106C179.54 39.108 181.172 39.4312 182.696 40.0616C184.219 40.6919 185.603 41.6171 186.767 42.7839C188.499 44.5137 189.686 46.7121 190.184 49.1084C190.682 51.5046 190.467 53.9941 189.568 56.2702C189.28 57.0013 189.851 57.8015 190.617 57.8015L190.716 57.7965C191.082 57.7636 191.45 57.7472 191.819 57.7472C194.025 57.7439 196.194 58.322 198.106 59.4233C200.019 60.5245 201.607 62.11 202.712 64.0202C203.936 66.1397 204.513 68.5708 204.373 71.0141C204.232 73.4575 203.38 75.8064 201.922 77.7717C201.434 78.4303 201.828 79.4017 202.634 79.5433C204.993 79.9544 207.184 81.0308 208.951 82.6456C210.719 84.2604 211.987 86.3465 212.609 88.6582C213.242 91.0226 213.17 93.5205 212.401 95.8442C211.632 98.168 210.2 100.216 208.282 101.736C207.643 102.245 207.772 103.284 208.512 103.631C210.684 104.637 212.523 106.243 213.812 108.26C215.101 110.277 215.786 112.62 215.787 115.014C215.786 117.457 215.072 119.848 213.732 121.892C212.392 123.935 210.484 125.543 208.242 126.518C207.482 126.85 207.31 127.881 207.946 128.414C209.784 129.948 211.146 131.975 211.869 134.257C212.593 136.539 212.648 138.98 212.029 141.293C211.394 143.658 210.081 145.785 208.252 147.414C206.423 149.042 204.158 150.101 201.736 150.459C200.925 150.579 200.517 151.546 200.986 152.216C202.363 154.173 203.15 156.483 203.257 158.873C203.364 161.263 202.785 163.634 201.589 165.705C200.365 167.827 198.546 169.544 196.357 170.644C194.169 171.744 191.706 172.179 189.273 171.896C189.084 171.879 188.894 171.909 188.719 171.985C188.545 172.06 188.392 172.178 188.275 172.327C188.158 172.477 188.08 172.653 188.049 172.841C188.018 173.028 188.034 173.22 188.096 173.4C188.918 175.647 189.081 178.082 188.565 180.418C188.048 182.755 186.874 184.895 185.182 186.586C184.017 187.753 182.633 188.678 181.11 189.309C179.587 189.939 177.954 190.262 176.306 190.26C174.723 190.259 173.155 189.962 171.682 189.384C171.555 189.335 171.42 189.309 171.284 189.308C171.128 189.309 170.974 189.343 170.831 189.406C170.689 189.469 170.56 189.561 170.455 189.675C170.349 189.79 170.268 189.925 170.216 190.072C170.164 190.219 170.143 190.376 170.154 190.531C170.367 192.915 169.893 195.31 168.788 197.433C167.684 199.556 165.996 201.319 163.922 202.514C162.019 203.615 159.859 204.195 157.661 204.195C154.961 204.194 152.332 203.329 150.159 201.726C149.972 201.587 149.745 201.512 149.512 201.512C149.246 201.509 148.987 201.601 148.781 201.77C148.575 201.94 148.435 202.176 148.386 202.439C147.974 204.796 146.896 206.987 145.28 208.753C143.663 210.518 141.576 211.784 139.263 212.401C138.201 212.688 137.106 212.833 136.006 212.833C134.115 212.828 132.25 212.399 130.548 211.576C128.845 210.753 127.35 209.558 126.172 208.079C126.068 207.95 125.936 207.846 125.786 207.775C125.636 207.703 125.472 207.667 125.306 207.668C125.09 207.664 124.879 207.723 124.696 207.837C124.513 207.951 124.367 208.115 124.275 208.31C123.255 210.503 121.623 212.356 119.575 213.645C117.528 214.933 115.152 215.604 112.733 215.575C110.314 215.547 107.955 214.821 105.938 213.484C103.922 212.147 102.334 210.257 101.366 208.04C101.275 207.835 101.127 207.662 100.939 207.54C100.751 207.419 100.532 207.354 100.309 207.355C100.149 207.354 99.9906 207.388 99.8455 207.455C99.7003 207.523 99.5718 207.621 99.4691 207.744C98.2891 209.152 96.8152 210.286 95.1507 211.065C93.4862 211.843 91.6715 212.249 89.8338 212.252C86.8218 212.253 83.9095 211.172 81.6277 209.206C79.346 207.239 77.8466 204.519 77.4029 201.54C77.3721 201.351 77.2941 201.174 77.1762 201.024C77.0584 200.873 76.9044 200.756 76.7287 200.681C76.5531 200.606 76.3614 200.577 76.1715 200.597C75.9816 200.616 75.7997 200.683 75.6428 200.792C73.5195 202.275 70.993 203.072 68.4032 203.076C66.2038 203.075 64.0436 202.495 62.14 201.393C60.0192 200.17 58.3025 198.354 57.2013 196.168C56.1002 193.981 55.6626 191.521 55.9426 189.089C56.02 188.409 55.4519 187.847 54.8131 187.847C54.6852 187.848 54.5583 187.871 54.4377 187.913C53.0522 188.416 51.5896 188.674 50.1157 188.674C48.0688 188.676 46.0526 188.176 44.2429 187.22C42.4332 186.263 40.8851 184.878 39.7336 183.186C38.582 181.494 37.862 179.545 37.6363 177.511C37.4106 175.477 37.6861 173.418 38.4388 171.514C38.727 170.785 38.1556 169.983 37.39 169.983L37.2912 169.988C34.9064 170.202 32.5102 169.729 30.3849 168.627C28.2595 167.524 26.4935 165.837 25.2949 163.764C24.0711 161.645 23.4938 159.214 23.6342 156.77C23.7746 154.327 24.6266 151.978 26.0853 150.013C26.1958 149.858 26.2656 149.678 26.2882 149.489C26.3107 149.3 26.2853 149.108 26.2143 148.932C26.1432 148.755 26.0288 148.599 25.8817 148.479C25.7345 148.358 25.5594 148.276 25.3723 148.241C22.9864 147.829 20.7709 146.734 18.9933 145.09C17.2157 143.446 15.952 141.323 15.3549 138.976C14.7577 136.63 14.8526 134.161 15.628 131.867C16.4035 129.573 17.8264 127.553 19.7249 126.05C19.8708 125.928 19.984 125.772 20.054 125.596C20.1241 125.419 20.1488 125.228 20.1258 125.04C20.1029 124.851 20.0331 124.671 19.9228 124.517C19.8125 124.362 19.6652 124.238 19.4944 124.155C17.3222 123.149 15.4832 121.543 14.1943 119.526C12.9054 117.508 12.2204 115.165 12.2202 112.771C12.2207 110.327 12.9351 107.936 14.2757 105.892C15.6162 103.849 17.5244 102.241 19.766 101.267C20.5234 100.934 20.6963 99.9037 20.0608 99.3736C18.1999 97.823 16.8278 95.7667 16.1102 93.4532C15.3927 91.1397 15.3603 88.668 16.0171 86.3365C16.6739 84.005 17.9917 81.9136 19.8114 80.3148C21.631 78.7161 23.8747 77.6784 26.2713 77.3271C26.4586 77.2951 26.6349 77.2166 26.784 77.0988C26.9331 76.981 27.0503 76.8277 27.1248 76.653C27.1993 76.4782 27.2288 76.2875 27.2106 76.0984C27.1924 75.9092 27.127 75.7277 27.0205 75.5703C25.6424 73.6141 24.8533 71.3042 24.7465 68.9136C24.6397 66.5231 25.2197 64.152 26.4178 62.0807C27.6422 59.9592 29.4608 58.2426 31.6493 57.1425C33.8378 56.0424 36.3005 55.6069 38.7335 55.8899C38.9227 55.9073 39.1132 55.8769 39.2875 55.8016C39.4619 55.7264 39.6146 55.6086 39.7317 55.459C39.8489 55.3095 39.9266 55.133 39.9579 54.9457C39.9891 54.7583 39.973 54.5661 39.9108 54.3867C39.2155 52.4901 38.9886 50.4536 39.2494 48.4505C39.5101 46.4473 40.2508 44.5368 41.4085 42.8814C42.5661 41.226 44.1065 39.8747 45.8985 38.9424C47.6905 38.0101 49.6812 37.5244 51.7013 37.5267C53.272 37.5267 54.8427 37.8181 56.3246 38.4026C56.4574 38.4542 56.5902 38.4794 56.723 38.4783C57.3487 38.4783 57.9118 37.9284 57.8525 37.255C57.6399 34.871 58.1136 32.4759 59.2179 30.3523C60.3221 28.2288 62.0107 26.4654 64.0845 25.2702C65.9877 24.1695 68.1474 23.5897 70.346 23.5892C73.0298 23.5892 75.6724 24.4519 77.8474 26.0606C78.045 26.2071 78.2722 26.2746 78.4945 26.2746C79.0148 26.2746 79.5219 25.9124 79.6207 25.3476C80.1296 22.4342 81.6507 19.794 83.9158 17.8924C86.181 15.9908 89.0447 14.95 92.0023 14.9534C93.8925 14.9579 95.7577 15.3873 97.4596 16.2098C99.1616 17.0323 100.657 18.2268 101.835 19.7051C102.057 19.985 102.378 20.1167 102.701 20.1167C102.916 20.1185 103.128 20.0591 103.31 19.9454C103.493 19.8317 103.64 19.6684 103.733 19.4746C104.743 17.304 106.351 15.4669 108.369 14.1797C110.388 12.8924 112.732 12.2086 115.125 12.2087Z" fill="black"/>
<path d="M316.751 153.826C318.522 153.826 320.023 154.515 321.254 155.892C322.484 157.27 323.099 159.04 323.099 161.202C323.099 163.364 322.287 165.135 320.663 166.514C319.038 167.892 316.947 168.581 314.388 168.578H311.73C306.906 168.578 302.501 167.324 298.516 164.816C294.528 162.308 291.402 158.89 289.139 154.563C286.876 150.236 285.743 145.368 285.742 139.959V103.521H278.951C276.884 103.521 275.21 102.93 273.931 101.749C272.651 100.57 272.011 99.0951 272.011 97.3234C272.011 95.3575 272.651 93.784 273.931 92.603C275.21 91.423 276.884 90.833 278.952 90.833H285.742V69.5901C285.742 67.4255 286.432 65.655 287.81 64.2785C289.188 62.902 290.96 62.2138 293.125 62.2138C295.291 62.2138 297.063 62.902 298.442 64.2785C299.82 65.655 300.509 67.4255 300.508 69.5901V90.833H313.059C315.126 90.833 316.799 91.423 318.079 92.603C319.359 93.784 319.999 95.3575 319.999 97.3234C319.999 99.0951 319.359 100.57 318.079 101.749C316.799 102.93 315.126 103.521 313.058 103.521H300.508V139.957C300.508 143.893 301.591 147.188 303.757 149.843C305.922 152.499 308.58 153.827 311.73 153.827L316.751 153.826ZM373.006 87.2914C380.586 87.2914 387.452 89.0861 393.604 92.6754C399.757 96.2669 404.63 101.184 408.223 107.428C411.815 113.674 413.612 120.633 413.612 128.305V161.202C413.612 163.366 412.898 165.16 411.471 166.586C410.044 168.013 408.248 168.727 406.082 168.727C403.917 168.727 402.12 168.013 400.692 166.586C399.264 165.159 398.55 163.364 398.551 161.202V155.744C395.155 159.932 390.867 163.308 386 165.628C381.077 167.988 375.762 169.168 370.054 169.168C362.965 169.168 356.542 167.398 350.785 163.858C345.026 160.318 340.498 155.425 337.202 149.179C333.903 142.934 332.254 135.975 332.254 128.304C332.254 120.632 334.026 113.674 337.57 107.43C341.115 101.185 346.012 96.2675 352.262 92.6771C358.512 89.0877 365.427 87.2931 373.008 87.2931M373.008 155.894C377.931 155.894 382.385 154.689 386.371 152.278C390.358 149.87 393.484 146.575 395.747 142.394C398.012 138.216 399.144 133.519 399.144 128.305C399.144 123.093 398.012 118.372 395.747 114.144C393.484 109.915 390.358 106.595 386.371 104.186C382.385 101.777 377.931 100.572 373.008 100.572C368.087 100.572 363.633 101.777 359.646 104.186C355.66 106.595 352.51 109.915 350.196 114.144C347.882 118.373 346.725 123.094 346.727 128.305C346.728 133.517 347.884 138.213 350.196 142.394C352.508 146.575 355.659 149.87 359.646 152.278C363.631 154.689 368.085 155.894 373.008 155.894ZM460.271 169.171C453.578 169.171 447.278 168.138 441.373 166.072C435.468 164.007 430.841 161.302 427.493 157.959C426.213 156.68 425.573 155.155 425.573 153.385C425.573 151.025 426.558 149.107 428.527 147.632C430.398 146.255 432.12 145.567 433.694 145.567C435.663 145.567 437.533 146.452 439.305 148.221C441.175 150.287 443.981 152.082 447.722 153.605C451.463 155.131 455.449 155.894 459.682 155.894C465.293 155.894 469.649 154.959 472.748 153.09C475.85 151.222 477.401 148.714 477.4 145.565C477.4 142.517 475.874 139.985 472.823 137.969C469.771 135.952 464.603 134.256 457.319 132.879C438.42 129.239 428.97 121.47 428.97 109.57C428.97 104.751 430.397 100.67 433.251 97.3251C436.106 93.9816 439.847 91.4735 444.473 89.8006C449.1 88.13 454.022 87.2947 459.239 87.2947C465.637 87.2947 471.371 88.327 476.44 90.3917C481.511 92.4575 485.523 95.3098 488.476 98.9485C489.754 100.523 490.394 102.096 490.394 103.669C490.394 105.341 489.557 106.865 487.885 108.243C486.801 109.03 485.423 109.423 483.75 109.423C481.189 109.423 478.876 108.489 476.81 106.619C474.348 104.358 471.74 102.76 468.985 101.825C466.228 100.892 462.881 100.425 458.943 100.424C454.415 100.424 450.699 101.186 447.796 102.711C444.892 104.235 443.439 106.374 443.439 109.127C443.439 111.095 443.932 112.743 444.916 114.07C445.901 115.398 447.771 116.627 450.527 117.758C453.283 118.889 457.269 119.995 462.488 121.077C473.216 123.241 480.82 126.241 485.3 130.077C489.778 133.913 492.017 138.88 492.017 144.978C492.017 149.5 490.787 153.605 488.327 157.293C485.868 160.981 482.25 163.883 477.474 165.998C472.698 168.113 466.964 169.171 460.273 169.171M566.881 157.959C567.964 159.138 568.505 160.614 568.505 162.384C568.505 164.549 567.619 166.368 565.847 167.842C564.371 169.022 562.796 169.612 561.122 169.612C558.956 169.612 557.185 168.728 555.807 166.958L527.751 132.29L520.37 138.78V161.352C520.37 163.515 519.706 165.261 518.377 166.588C517.047 167.916 515.3 168.58 513.135 168.58C510.968 168.58 509.221 167.916 507.893 166.588C506.564 165.26 505.9 163.514 505.9 161.352V60.5904C505.9 58.4269 506.564 56.6816 507.893 55.3546C509.221 54.0275 510.968 53.3634 513.135 53.3623C515.302 53.3612 517.049 54.0253 518.376 55.3546C519.703 56.6838 520.367 58.4291 520.368 60.5904V120.633L556.25 88.6201C557.53 87.3414 559.056 86.702 560.827 86.702C562.894 86.702 564.567 87.489 565.847 89.063C567.127 90.3407 567.767 91.8648 567.767 93.6353C567.767 95.7011 566.979 97.3734 565.404 98.6521L538.232 122.844L566.881 157.959ZM613.982 87.2947C621.563 87.2947 628.428 89.0894 634.58 92.6787C640.732 96.268 645.605 101.186 649.199 107.431C652.793 113.677 654.589 120.635 654.588 128.305V161.204C654.588 163.367 653.874 165.162 652.447 166.588C651.02 168.015 649.224 168.728 647.057 168.728C644.892 168.728 643.096 168.015 641.668 166.588C640.241 165.162 639.527 163.367 639.527 161.204V155.746C636.131 159.933 631.843 163.31 626.976 165.629C622.053 167.989 616.738 169.169 611.03 169.169C603.943 169.169 597.52 167.399 591.761 163.86C586.002 160.32 581.474 155.427 578.178 149.181C574.878 142.935 573.229 135.977 573.23 128.305C573.231 120.634 575.003 113.676 578.545 107.431C582.09 101.186 586.988 96.268 593.237 92.6787C599.489 89.0894 606.404 87.2947 613.982 87.2947ZM613.982 155.894C618.905 155.894 623.359 154.689 627.345 152.278C631.332 149.87 634.457 146.575 636.722 142.394C638.985 138.216 640.117 133.519 640.117 128.305C640.117 123.093 638.985 118.372 636.722 114.144C634.457 109.915 631.332 106.595 627.345 104.186C623.358 101.777 618.904 100.572 613.982 100.572C609.06 100.572 604.606 101.777 600.619 104.186C596.633 106.595 593.482 109.915 591.169 114.144C588.855 118.373 587.698 123.094 587.699 128.305C587.7 133.517 588.857 138.213 591.17 142.394C593.483 146.575 596.633 149.87 600.621 152.278C604.605 154.689 609.059 155.894 613.982 155.894ZM741.557 53.364C743.82 53.364 745.641 54.0522 747.02 55.4286C748.397 56.8051 749.086 58.6245 749.086 60.8867V128.159C749.086 135.83 747.29 142.788 743.697 149.033C740.105 155.277 735.232 160.195 729.08 163.785C722.926 167.375 716.06 169.169 708.482 169.169C700.902 169.169 693.987 167.375 687.737 163.785C681.485 160.196 676.588 155.279 673.045 149.033C669.499 142.787 667.727 135.829 667.728 128.159C667.728 120.486 669.377 113.528 672.674 107.283C675.972 101.038 680.5 96.1456 686.258 92.6046C692.017 89.0647 698.441 87.2947 705.528 87.2947C711.238 87.2947 716.554 88.4747 721.475 90.8346C726.342 93.1541 730.63 96.5308 734.026 100.718V60.8867C734.026 58.6245 734.739 56.8051 736.166 55.4286C737.593 54.0522 739.39 53.364 741.557 53.364ZM708.482 155.894C713.403 155.894 717.857 154.689 721.845 152.278C725.83 149.869 728.955 146.549 731.22 142.32C733.485 138.092 734.617 133.372 734.617 128.159C734.617 122.946 733.485 118.25 731.22 114.07C728.956 109.89 725.831 106.595 721.845 104.186C717.859 101.777 713.405 100.572 708.482 100.572C703.559 100.572 699.105 101.777 695.119 104.186C691.132 106.594 687.981 109.889 685.669 114.07C683.356 118.249 682.199 122.945 682.199 128.159C682.199 133.372 683.356 138.092 685.669 142.32C687.981 146.548 691.132 149.868 695.119 152.278C699.107 154.689 703.561 155.894 708.482 155.894ZM842.995 126.978C842.995 128.848 842.355 130.396 841.075 131.625C839.795 132.854 838.171 133.469 836.202 133.469H780.094C781.177 140.354 784.302 145.911 789.469 150.139C794.637 154.368 800.962 156.482 808.444 156.483C811.396 156.483 814.472 155.942 817.672 154.86C820.871 153.779 823.504 152.451 825.572 150.877C826.949 149.796 828.574 149.255 830.446 149.255C832.315 149.255 833.791 149.747 834.875 150.73C836.646 152.206 837.532 153.877 837.532 155.746C837.532 157.515 836.744 158.99 835.169 160.171C831.821 162.828 827.662 164.991 822.692 166.662C817.72 168.335 812.97 169.171 808.444 169.171C800.371 169.171 793.136 167.425 786.738 163.934C780.34 160.442 775.344 155.598 771.752 149.402C768.159 143.205 766.363 136.173 766.363 128.305C766.363 120.437 768.061 113.381 771.457 107.136C774.852 100.891 779.577 96.0227 785.632 92.5322C791.685 89.0405 798.551 87.2947 806.229 87.2947C813.809 87.2947 820.355 88.9664 825.867 92.3099C831.379 95.6533 835.612 100.325 838.566 106.325C841.52 112.325 842.996 119.209 842.995 126.978ZM806.229 99.9809C799.044 99.9809 793.211 101.948 788.732 105.882C784.253 109.816 781.423 115.077 780.241 121.667H829.41C828.524 115.077 826.064 109.816 822.029 105.882C817.992 101.948 812.725 99.9809 806.229 99.9809Z" fill="white"/>
</svg>
