<svg width="657" height="656" viewBox="0 0 657 656" fill="none" xmlns="http://www.w3.org/2000/svg">
<path d="M604.504 355.224C611.27 355.224 617.97 356.557 624.221 359.146C630.472 361.735 636.152 365.53 640.937 370.315C645.721 375.099 649.516 380.779 652.105 387.03C654.695 393.281 656.027 399.981 656.027 406.747C656.027 413.513 654.695 420.213 652.105 426.464C649.516 432.715 645.721 438.395 640.937 443.18C636.152 447.964 630.472 451.759 624.221 454.349C617.97 456.938 611.27 458.271 604.504 458.271H236.816V324.447H261.088V433.971H605.078C612.272 433.879 619.146 430.982 624.236 425.898C629.326 420.813 632.23 413.941 632.329 406.747C632.094 399.39 628.987 392.418 623.673 387.325C618.36 382.231 611.263 379.421 603.903 379.496H284.185V355.224H604.504ZM367.087 197.757H236.816V252.205H261.088V221.427H367.688C374.877 221.526 381.745 224.426 386.829 229.51C391.913 234.595 394.813 241.462 394.912 248.651C394.746 256.035 391.779 263.08 386.612 268.359C381.445 273.637 374.466 276.754 367.087 277.078H51.5233C37.8585 277.078 24.7533 282.506 15.0908 292.169C5.42833 301.831 0 314.936 0 328.601C0 342.266 5.42833 355.371 15.0908 365.034C24.7533 374.696 37.8585 380.125 51.5233 380.125H212.544V355.825H51.5233C44.2995 355.825 37.3714 352.956 32.2634 347.848C27.1553 342.739 24.2857 335.811 24.2857 328.588C24.2857 321.364 27.1553 314.436 32.2634 309.328C37.3714 304.22 44.2995 301.35 51.5233 301.35H367.633C381.26 301.243 394.299 295.784 403.938 286.15C413.576 276.517 419.042 263.481 419.157 249.854C418.918 236.111 413.352 222.999 403.634 213.28C393.915 203.561 380.802 197.995 367.059 197.757" fill="white"/>
</svg>
