<svg width="363" height="363" viewBox="0 0 363 363" fill="none" xmlns="http://www.w3.org/2000/svg">
<path d="M199.832 158.162L193.555 190.06L253.253 198.046L249.063 212.99L190.424 205.004C186.234 217.996 184.117 231.942 178.899 243.921C173.665 257.881 168.417 271.826 162.125 284.819C153.746 301.759 139.105 313.738 119.215 316.717C107.69 318.714 95.1363 317.7 85.6983 310.743C82.5674 308.746 79.4063 304.768 79.4063 301.759C79.4063 297.781 79.3307 293.092 84.6547 290.793C89.9636 288.479 92.1567 290.112 95.1363 291.776C98.2672 294.771 101.398 298.764 103.5 302.757C109.777 310.743 118.157 311.726 126.536 305.736C135.959 297.781 141.207 286.8 144.338 275.834C150.615 251.907 156.907 228.947 162.125 205.034V201.026L106.646 193.04L108.734 178.097L166.33 186.067L173.635 155.167L113.967 146.168L116.084 130.226L177.855 138.212C179.927 132.207 180.986 127.231 183.088 122.255C188.306 104.287 193.555 86.3332 206.124 70.3763C218.677 54.4194 233.349 44.4521 255.325 45.4352C264.763 45.4352 274.186 48.4451 280.463 55.4177C281.522 56.4159 283.594 58.4124 283.594 60.3938C283.594 64.4019 283.594 69.3781 280.463 72.3879C276.273 75.3524 271.04 74.3542 266.85 70.3914C263.704 67.3967 261.602 64.4019 258.471 61.4072C252.194 53.4212 242.771 52.4229 235.436 59.4107C229.764 64.8406 225.151 71.2536 221.823 78.3623C214.473 99.2953 209.254 121.242 201.934 143.188L259.515 151.174L255.325 166.118L199.832 158.162Z" fill="white"/>
</svg>
